<?xml version="1.0" encoding="UTF-8"?>
<svg version="1.1" viewBox="0 0 1288 1288" width="1288" height="1288" xmlns="http://www.w3.org/2000/svg">
<path transform="translate(630,6)" d="m0 0h15l12 4 19 11 21 12 9 6 32 19 25 15 16 9 11 7 19 11 28 17 17 10 16 10 24 13 19 12 25 15 17 10 44 26 16 10 29 17 18 10 19 12 26 15 28 17 14 9 10 10 4 8 2 8v7l-3 11-7 9-9 8-28 17-16 9-20 12-28 17-24 14-15 9-27 16-44 26-28 17-22 13-17 10-16 10-28 16-15 9-19 11-19 12-17 10-29 17-26 15-28 17-19 11-11 5-3 1h-14l-13-5-22-13-28-17-24-14-29-17-14-8-21-13-44-26-26-15-19-12-21-12-28-17-25-15-29-17-32-19-18-11-26-15-13-8-15-9-22-13-20-12-12-8-8-7-6-10-2-8v-9l2-9 6-9 8-8 32-19 65-39 18-10 16-10 17-10 16-10 21-12 17-10 28-17 26-16 24-13 22-14 21-12 19-12 18-10 25-15 29-17 20-12 18-11 9-7 22-13 12-6zm5 80-20 11-20 12-32 19-19 12-29 16-16 10-55 33-21 12-20 12-27 16-55 33-18 10-14 9-16 9-21 13-14 8-8 7-1 7 7 8 21 12 44 26 15 9 22 13 25 15 27 16 28 17 28 16 21 13 23 13 26 16 17 10 28 17 22 12 14 9 22 13 11 6 4 2h12l14-7 21-13 15-9 21-12 27-16 20-12 32-19 27-16 20-12 26-15 21-13 29-17 15-9 28-17 16-9 16-10 26-15 22-13 8-7 1-7-6-7-40-24-21-12-14-9-20-11-26-16-15-9-29-17-25-15-21-12-28-17-45-27-25-14-19-12-29-17-28-17-15-8z" fill="#007AFF"/>
<path transform="translate(145,712)" d="m0 0h10l11 4 22 12 20 12 21 13 17 10 13 8 23 13 30 18 44 26 18 11 29 17 25 15 32 19 29 17 13 8 54 32 11 7 11 6 44 26 10 6 3 1h10l10-5 27-16 20-12 26-15 15-9 32-19 20-12 49-29 28-17 29-17 20-12 29-17 13-8 22-13 15-9 23-13 20-12 26-16 25-15 18-10 9-4 5-1h8l11 4 9 7 7 9 3 8 1 11-3 10-6 9-7 7-15 10-18 10-19 12-29 17-16 10-21 12-15 9-21 12-40 24-13 8-15 9-19 11-15 9-18 10-19 12-27 16-29 17-23 14-13 8-25 14-16 10-22 13-13 8-22 13-12 6-7 2h-13l-10-3-21-11-24-15-17-10-20-12-21-12-20-12-28-17-24-14-27-16-21-13-23-13-18-11-19-11-20-12-28-17-22-13-21-12-25-15-28-17-21-12-19-12-16-9-11-8-8-8-4-8-2-8v-9l3-10 6-9 8-7 8-4z" fill="#007AFF"/>
<path transform="translate(145,920)" d="m0 0h11l11 4 25 14 28 17 50 30 13 8 16 9 13 8 18 10 51 31 24 14 32 19 19 11 25 15 28 17 17 10 21 12 21 13 29 17 27 16 11 6h10l20-11 25-15 22-13 23-14 21-12 22-13 20-12 28-17 26-15 25-15 27-16 22-13 21-13 21-12 15-9 14-8 18-11 15-9 22-13 25-15 22-13 18-10 7-2h11l12 5 11 10 5 9 2 8v7l-4 13-9 10-9 7-27 16-65 39-18 10-21 13-29 17-28 17-16 9-28 17-16 10-18 10-14 8-21 13-45 27-19 11-44 26-17 10-28 17-24 14-12 6-9 2h-8l-11-3-14-7-15-9-22-13-20-12-28-17-18-10-18-11-18-10-19-12-22-13-19-12-22-12-51-31-29-17-17-10-20-12-61-36-65-39-13-8-10-9-6-9-2-9v-9l3-11 7-9 9-7z" fill="#007AFF"/>
<path transform="translate(144,505)" d="m0 0h13l10 4 22 12 21 13 29 17 28 17 16 9 28 17 16 9 28 17 27 16 15 9 26 15 15 10 17 9 23 14 40 24 24 14 20 12 29 17 35 21 8 4h12l15-8 15-9 59-35 44-26 15-9 17-10 16-10 20-11 15-10 18-10 85-51 18-10 19-12 21-12 13-8 24-14 40-24 19-10 3-1h14l9 4 8 6 7 8 4 9 1 11-3 11-6 9-10 9-22 13-18 11-24 14-25 15-18 10-14 9-16 9-115 69-18 10-28 17-27 16-15 9-21 12-19 12-27 16-15 9-23 13-16 10-22 13-13 6-4 1h-12l-11-4-18-10-28-17-23-13-28-17-22-13-18-11-19-11-23-14-29-17-20-12-29-17-20-12-49-29-23-14-15-9-17-10-14-8-29-17-13-8-24-14-21-13-9-6-8-7-6-10-2-8v-9l3-11 7-9 7-6 8-4z" fill="#007AFF"/>
</svg>
