<?xml version="1.0" encoding="UTF-8"?>
<svg version="1.1" viewBox="0 0 1288 1288" width="322" height="322" xmlns="http://www.w3.org/2000/svg">
<path transform="translate(637)" d="m0 0h6l1 3 9 2 21 11 20 12 17 10 65 39 22 13 24 14 45 27 24 14 50 30 24 14 22 13 28 17 22 13 24 14 20 12 32 19 25 15 13 8 9 8 7 14 1 5v11l-3 10-6 9-5 5-10 7-14 8-17 10-45 27-49 29-20 12-29 17-16 10-14 8-25 15-19 11-35 21-29 17-20 12-27 16-15 9-32 19-24 14-28 17-24 14-11 5-4 1h-14l-12-4-14-8-28-17-29-17-22-13-25-15-22-13-76-45-25-15-17-10-15-9-24-14-18-11-59-35-15-9-29-17-25-15-32-19-19-12-8-8-6-12-1-4v-13l4-12 7-9 7-6 29-17 35-21 32-19 29-17 20-12 18-11 66-39 25-15 24-14 28-17 22-13 41-24 30-18 22-13 20-12 44-26 12-6 9-2zm1 87-29 17-25 15-27 16-15 9-26 15-13 8-40 24-24 14-28 17-21 12-15 9-32 19-20 12-29 17-40 24-26 16 2 4 15 9 22 13 27 16 28 17 14 8 35 21 29 17 25 15 29 17 18 11 19 11 40 24 76 45 25 15 7 4 5-2 16-9 18-11 22-13 29-17 28-17 29-17 15-9 17-10 15-9 17-10 32-19 28-17 14-8 20-12 34-20 13-8 44-26 14-8 3-4-5-4-28-17-15-9-19-11-20-12-29-17-15-9-32-19-15-9-22-13-25-15-24-14-40-24-44-26-25-15-27-16-24-14z" fill="#007aff"/>
<path transform="translate(143,917)" d="m0 0h14l9 3 11 6 26 15 85 51 29 17 17 10 27 16 40 24 24 14 20 12 29 17 45 27 17 10 32 19 28 17 26 15 15 9h6l15-9 22-13 20-12 22-13 15-9 21-12 18-11 40-24 19-11 20-12 49-29 20-12 32-19 22-13 17-10 32-19 25-15 32-19 25-15 9-4 5-1h14l12 5 9 7 6 9 3 7 1 5v11l-3 10-7 11-9 7-24 14-25 15-22 13-20 12-24 14-20 12-32 19-20 12-22 13-25 15-32 19-19 11-28 17-22 13-29 17-15 9-44 26-18 11-29 17-15 9-12 6-6 1h-12l-9-2-15-8-25-15-22-13-28-17-24-14-20-12-13-8-11-6-28-17-19-11-15-9-29-17-25-15-54-32-20-12-32-19-15-9-27-16-32-19-25-15-17-10-8-7-7-12-2-7v-13l4-11 6-9 7-6 11-5z" fill="#007aff"/>
<path transform="translate(146,709)" d="m0 0h9l13 4 21 12 20 12 22 13 40 24 24 14 28 17 24 14 28 17 16 9 23 14 17 10 15 9 29 17 25 15 28 17 26 15 13 8 19 11 17 10 35 21 5-1 19-11 35-21 24-14 27-16 28-17 14-8 28-17 21-12 20-12 27-16 35-21 17-10 15-9 27-16 22-13 24-14 13-8 17-10 13-8 22-13 19-11 10-4 5-1h9l13 4 6 4 5 5 6 8 4 13v10l-3 10-7 11-7 6-25 15-44 26-25 15-29 17-25 15-29 17-18 11-17 10-10 6-34 20-32 19-13 8-19 11-45 27-27 16-29 17-25 15-28 17-14 8-10 5-5 1h-18l-12-5-25-15-22-13-40-24-26-15-13-8-32-19-15-9-24-14-18-11-29-17-25-15-29-17-28-17-29-17-32-19-25-15-29-17-45-27-8-6-6-7-5-11-1-3v-13l3-10 7-11 7-6 12-5z" fill="#007aff"/>
<path transform="translate(146,501)" d="m0 0 13 1 10 4 16 9 28 17 26 15 55 33 17 10 49 29 25 15 22 13 45 27 19 11 28 17 14 8 28 17 24 14 29 17 15 9 22 13 8 5 5-2 54-32 22-13 35-21 49-29 25-15 16-9 19-12 14-8 22-13 20-12 22-13 20-12 24-14 60-36 21-12 21-13 21-12 8-4 10-2 10 1 11 4 8 6 7 9 4 9 1 4v11l-2 8-4 8-9 10-15 9-32 19-25 15-27 16-49 29-15 9-59 35-35 21-24 14-50 30-19 11-35 21-22 13-25 15-19 11-40 24-8 4-9 2h-11l-13-4-28-17-14-8-22-13-25-15-22-13-20-12-17-10-27-16-25-15-22-13-44-26-20-12-22-13-32-19-18-11-29-17-44-26-20-12-27-16-16-10-8-8-6-12-1-4v-13l3-10 7-10 8-7 9-4z" fill="#007aff"/>
</svg>
